<svg id="Layer_1" data-name="Layer 1" xmlns="http://www.w3.org/2000/svg" viewBox="0 0 48 48"><path d="M21.05,28.55l-4.9-4.9a1.57,1.57,0,0,0-2.2,0,1.62,1.62,0,0,0-.5,1.17A1.54,1.54,0,0,0,13.9,26l6.1,6.1a1.58,1.58,0,0,0,2.1,0l12-12a1.5,1.5,0,0,0,.45-1.1,1.59,1.59,0,0,0-.5-1.15,1.52,1.52,0,0,0-1.13-.45,1.62,1.62,0,0,0-1.17.5ZM24,44a20.23,20.23,0,0,1-7.9-1.53A19.3,19.3,0,0,1,5.53,31.9,20.23,20.23,0,0,1,4,24a20.09,20.09,0,0,1,1.53-7.85A19.44,19.44,0,0,1,9.75,9.8,19.84,19.84,0,0,1,16.1,5.55,20.06,20.06,0,0,1,24,4,19.84,19.84,0,0,1,44,24a20.06,20.06,0,0,1-1.55,7.9,19.84,19.84,0,0,1-4.25,6.35,19.44,19.44,0,0,1-6.35,4.22A20.09,20.09,0,0,1,24,44Z" fill="#b4b5b7"/></svg>