<svg id="Layer_1" data-name="Layer 1" xmlns="http://www.w3.org/2000/svg" viewBox="0 0 16 16"><path d="M15.5,1.94a.5.5,0,0,1,0,.71l-1,1-2-2,1-1a.5.5,0,0,1,.71,0L15.5,1.94ZM13.75,4.4l-2-2L4.94,9.21a.41.41,0,0,0-.12.2L4,11.82a.26.26,0,0,0,.16.32h.16l2.41-.81a.41.41,0,0,0,.2-.12L13.75,4.4Z" fill="#fff"/><path d="M1,13.5A1.5,1.5,0,0,0,2.5,15h11A1.5,1.5,0,0,0,15,13.5v-6a.5.5,0,0,0-1,0v6a.5.5,0,0,1-.5.5H2.5a.5.5,0,0,1-.5-.5V2.5A.5.5,0,0,1,2.5,2H9A.5.5,0,0,0,9,1H2.5A1.5,1.5,0,0,0,1,2.5Z" fill="#fff" fill-rule="evenodd"/></svg>