<svg id="Layer_1" data-name="Layer 1" xmlns="http://www.w3.org/2000/svg" viewBox="0 0 16 16"><path d="M4.37,12.09a.51.51,0,0,1,.52-.51h9.19a.51.51,0,1,1,0,1H4.89A.51.51,0,0,1,4.37,12.09ZM4.37,8a.51.51,0,0,1,.52-.51h9.19a.51.51,0,1,1,0,1H4.89A.51.51,0,0,1,4.37,8Zm0-4.09a.51.51,0,0,1,.52-.51h9.19a.51.51,0,0,1,0,1H4.89A.51.51,0,0,1,4.37,3.91Z" fill="#fff" fill-rule="evenodd"/><path d="M1.45,5a.15.15,0,0,1,0-.11.12.12,0,0,1,0-.11l.88-.88L1.44,3a.14.14,0,0,1,0-.11.14.14,0,0,1,0-.11.16.16,0,0,1,.11-.05.14.14,0,0,1,.1.05l1,1,0,0s0,0,0,.06A.43.43,0,0,1,2.7,4a.1.1,0,0,1,0,0l-1,1a.17.17,0,0,1-.22,0Z" fill="#fff"/><path d="M1.45,9.11a.17.17,0,0,1,0-.11.12.12,0,0,1,0-.11L2.33,8l-.89-.9a.11.11,0,0,1,0-.1.12.12,0,0,1,0-.11.13.13,0,0,1,.11-.05.14.14,0,0,1,.1.05l1,1,0,0s0,0,0,.06,0,0,0,.05l0,0-1,1a.15.15,0,0,1-.11,0A.21.21,0,0,1,1.45,9.11Z" fill="#fff"/><path d="M1.45,13.2a.19.19,0,0,1,0-.12.1.1,0,0,1,0-.1l.88-.89-.89-.89a.12.12,0,0,1,0-.11.12.12,0,0,1,0-.1.13.13,0,0,1,.11-.05.14.14,0,0,1,.1.05l1,1a.1.1,0,0,1,0,0,.43.43,0,0,1,0,.05s0,0,0,.06l0,0-1,1a.15.15,0,0,1-.11,0A.21.21,0,0,1,1.45,13.2Z" fill="#fff"/></svg>