<svg id="Layer_1" data-name="Layer 1" xmlns="http://www.w3.org/2000/svg" viewBox="0 0 700 700"><path d="M616.38,160.46c0-17.42-13.32-30.74-30.73-30.74H114.35c-17.41,0-30.73,13.32-30.73,30.74V508.81h-41v30.73c0,17.42,13.32,30.74,30.74,30.74H626.63c17.42,0,30.74-13.32,30.74-30.74V508.81h-41ZM104.11,385.86V211.69H339.75V385.86ZM360.25,211.69H595.89V385.86H360.25Zm-245.9-61.48h471.3c6.14,0,10.24,4.1,10.24,10.25v30.73H104.11V160.46C104.11,154.31,108.21,150.21,114.35,150.21ZM104.11,406.35H595.89V508.81H104.11ZM636.88,539.54c0,6.15-4.1,10.25-10.25,10.25H73.37c-6.15,0-10.25-4.1-10.25-10.25V529.3H636.88Z" fill="#fff"/><path d="M145.8,157.57h18.56v18.56H145.8Z" fill="#fff"/><path d="M182.92,157.57h18.57v18.56H182.92Z" fill="#fff"/><path d="M220.05,157.57h18.57v18.56H220.05Z" fill="#fff"/><path d="M257.18,157.57h297v18.56h-297Z" fill="#fff"/><path d="M155.08,389.62h65v18.56h-65Z" fill="#fff"/><path d="M155.08,417.46H266.46V436H155.08Z" fill="#fff"/><path d="M368.56,389.62H415v18.56H368.56Z" fill="#fff"/><path d="M368.56,417.46H480V436H368.56Z" fill="#fff"/><path d="M470.67,213.26h-9.29a64.57,64.57,0,0,0-65,65v9.28h74.26ZM452.1,269H415.9a45.54,45.54,0,0,1,36.2-36.2Z" fill="#fff"/><path d="M315.65,243.89,285,274.53l-27.85-27.85-46.41,46.41-27.84-27.85-43.63,43.63,13,13,30.63-30.63,27.84,27.85,46.41-46.41L285,300.51l43.63-43.62Z" fill="#fff"/><path d="M480,241.1v18.57a37.13,37.13,0,1,1-37.13,37.13H424.26A55.69,55.69,0,1,0,480,241.1Z" fill="#fff"/><path d="M155.08,445.31H266.46v18.56H155.08Z" fill="#fff"/><path d="M368.56,445.31H480v18.56H368.56Z" fill="#fff"/><path d="M303.59,417.46h27.85V436H303.59Z" fill="#fff"/><path d="M303.59,445.31h27.85v18.56H303.59Z" fill="#fff"/><path d="M517.08,417.46h27.84V436H517.08Z" fill="#fff"/><path d="M517.08,445.31h27.84v18.56H517.08Z" fill="#fff"/></svg>