<svg id="Layer_1" data-name="Layer 1" xmlns="http://www.w3.org/2000/svg" viewBox="0 0 700 700"><path d="M338,508.56a152.55,152.55,0,0,0,123,61.9,155.57,155.57,0,0,0,30.4-3,151.6,151.6,0,0,0,29-8.91,9,9,0,0,1,4.76-.62L596,567.76l-23.89-34.7a9,9,0,0,1,1.3-11.65A151.44,151.44,0,0,0,473,268,203.92,203.92,0,0,1,338,508.55ZM467.66,249.61a170.77,170.77,0,0,1,114,49.51,168.39,168.39,0,0,1,9.44,229.56l31.48,45.73a8.94,8.94,0,0,1,1.48,6.31,9.06,9.06,0,0,1-10.22,7.68L525,576.13a170.84,170.84,0,0,1-30.11,9A173.56,173.56,0,0,1,461,588.51a171,171,0,0,1-141.56-74.79,207.52,207.52,0,0,1-86.8,1.07,202.39,202.39,0,0,1-36.65-11l-108.18,15a9.06,9.06,0,0,1-10.22-7.68,8.9,8.9,0,0,1,1.49-6.31l39-56.67A202.55,202.55,0,0,1,128.4,171.16a205.5,205.5,0,0,1,339.24,78.45Zm-326.4-65.7a184.69,184.69,0,0,0-5.5,256.89,9,9,0,0,1,1.3,11.65l-31.43,45.66,90.29-12.48a9.16,9.16,0,0,1,4.76.64,185.17,185.17,0,0,0,35.51,10.9,189.24,189.24,0,0,0,37.25,3.64,187,187,0,0,0,132.17-54.37,185,185,0,0,0,46.78-185c-9.78-30.16-24.08-54.94-46.78-77.49a187.81,187.81,0,0,0-264.34,0Z" fill="#fff"/></svg>