<svg id="Layer_1" data-name="Layer 1" xmlns="http://www.w3.org/2000/svg" viewBox="0 0 700 700"><path d="M113.22,351.83V587.42a43,43,0,0,0,43.12,42.83H263.76a21.5,21.5,0,0,0,21.56-21.42V480.33H414.67v128.5a21.5,21.5,0,0,0,21.56,21.42H544.38a43.3,43.3,0,0,0,30.49-12.55,42.71,42.71,0,0,0,12.63-30.28V351.83h21.19a21.6,21.6,0,0,0,19.92-13.21,21.31,21.31,0,0,0-4.68-23.35L395.72,88.56a65,65,0,0,0-91.44,0L76.07,315.27a21.31,21.31,0,0,0-4.68,23.35,21.6,21.6,0,0,0,19.92,13.21Z" fill="#fff" fill-rule="evenodd"/></svg>