<svg id="Layer_1" data-name="Layer 1" xmlns="http://www.w3.org/2000/svg" viewBox="0 0 576.93 380.55"><path d="M83.49,203.63h533a22,22,0,1,0,0-43.9h-533a22,22,0,1,0,0,43.9Z" transform="translate(-61.54 -159.73)" fill="#fff" fill-rule="evenodd"/><path d="M83.49,372h533a21.95,21.95,0,1,0,0-43.9h-533a21.95,21.95,0,0,0,0,43.9Z" transform="translate(-61.54 -159.73)" fill="#fff" fill-rule="evenodd"/><path d="M83.49,540.27h533a22,22,0,1,0,0-43.9h-533a22,22,0,0,0,0,43.9Z" transform="translate(-61.54 -159.73)" fill="#fff" fill-rule="evenodd"/></svg>