<svg id="Layer_1" data-name="Layer 1" xmlns="http://www.w3.org/2000/svg" viewBox="0 0 700 700"><path d="M265.15,383.76A118.78,118.78,0,0,1,146.36,265a8.49,8.49,0,0,0-17,0A135.75,135.75,0,0,0,265.15,400.73a8.49,8.49,0,0,0,0-17Z" fill="#fff"/><path d="M604.48,519.94,484.08,400a8.47,8.47,0,0,0-12,0l-11.8,12L419,370.68a186.68,186.68,0,1,0-48,48l41.07,41.41-12,12h0a8.51,8.51,0,0,0,0,12.05l120,120.23a59.4,59.4,0,1,0,84-84ZM95.39,265A169.7,169.7,0,1,1,145.1,385,169.68,169.68,0,0,1,95.39,265ZM384.47,408.36a189.26,189.26,0,0,0,24-24L448,424,424.1,447.9ZM592.09,592A42.43,42.43,0,0,1,532,592l-114.21-114,60.25-60.25,114,114.21a42.43,42.43,0,0,1,0,60.07Z" fill="#fff"/></svg>